<svg width="198" height="93" viewBox="0 0 198 93" fill="none" xmlns="http://www.w3.org/2000/svg">
<path d="M26.564 22.937C26.39 23.227 26.1967 23.4494 25.984 23.604C25.7907 23.7394 25.549 23.807 25.259 23.807C24.9303 23.807 24.5437 23.6427 24.099 23.314C23.6543 22.9854 23.0937 22.6277 22.417 22.241C21.7597 21.835 20.9573 21.4677 20.01 21.139C19.082 20.8104 17.951 20.646 16.617 20.646C15.3603 20.646 14.2487 20.82 13.282 21.168C12.3347 21.4967 11.5323 21.951 10.875 22.531C10.237 23.111 9.75367 23.7974 9.425 24.59C9.09633 25.3634 8.932 26.2044 8.932 27.113C8.932 28.273 9.21233 29.2397 9.773 30.013C10.353 30.767 11.107 31.4147 12.035 31.956C12.9823 32.4974 14.0457 32.971 15.225 33.377C16.4237 33.7637 17.6417 34.1697 18.879 34.595C20.1357 35.0204 21.3537 35.5037 22.533 36.045C23.7317 36.567 24.795 37.234 25.723 38.046C26.6703 38.858 27.4243 39.8537 27.985 41.033C28.565 42.2124 28.855 43.6624 28.855 45.383C28.855 47.2004 28.5457 48.9114 27.927 50.516C27.3083 52.1014 26.3997 53.4837 25.201 54.663C24.0217 55.8424 22.562 56.7704 20.822 57.447C19.1013 58.1237 17.139 58.462 14.935 58.462C12.2283 58.462 9.773 57.9787 7.569 57.012C5.365 56.026 3.48 54.7017 1.914 53.039L3.538 50.371C3.69267 50.1584 3.87633 49.9844 4.089 49.849C4.321 49.6944 4.57233 49.617 4.843 49.617C5.09433 49.617 5.37467 49.7234 5.684 49.936C6.01267 50.1294 6.38 50.3807 6.786 50.69C7.192 50.9994 7.656 51.3377 8.178 51.705C8.7 52.0724 9.28967 52.4107 9.947 52.72C10.6237 53.0294 11.3873 53.2904 12.238 53.503C13.0887 53.6964 14.0457 53.793 15.109 53.793C16.443 53.793 17.632 53.6094 18.676 53.242C19.72 52.8747 20.5997 52.3624 21.315 51.705C22.0497 51.0284 22.6103 50.226 22.997 49.298C23.3837 48.37 23.577 47.3357 23.577 46.195C23.577 44.9384 23.287 43.9137 22.707 43.121C22.1463 42.309 21.402 41.6324 20.474 41.091C19.546 40.5497 18.4827 40.0954 17.284 39.728C16.0853 39.3414 14.8673 38.9547 13.63 38.568C12.3927 38.162 11.1747 37.698 9.976 37.176C8.77733 36.654 7.714 35.9774 6.786 35.146C5.858 34.3147 5.104 33.2804 4.524 32.043C3.96333 30.7864 3.683 29.2397 3.683 27.403C3.683 25.9337 3.96333 24.5127 4.524 23.14C5.104 21.7674 5.93533 20.5494 7.018 19.486C8.12 18.4227 9.46367 17.572 11.049 16.934C12.6537 16.296 14.4903 15.977 16.559 15.977C18.879 15.977 20.9863 16.3444 22.881 17.079C24.795 17.8137 26.477 18.877 27.927 20.269L26.564 22.937ZM52.8362 53.532C54.5569 53.532 56.0939 53.242 57.4472 52.662C58.8005 52.082 59.9412 51.27 60.8692 50.226C61.8165 49.182 62.5319 47.935 63.0152 46.485C63.5179 45.035 63.7692 43.44 63.7692 41.7V16.441H69.3662V41.7C69.3662 44.0974 68.9795 46.3207 68.2062 48.37C67.4522 50.4194 66.3599 52.198 64.9292 53.706C63.5179 55.1947 61.7875 56.3644 59.7382 57.215C57.6889 58.0657 55.3882 58.491 52.8362 58.491C50.2842 58.491 47.9835 58.0657 45.9342 57.215C43.8849 56.3644 42.1449 55.1947 40.7142 53.706C39.2835 52.198 38.1815 50.4194 37.4082 48.37C36.6542 46.3207 36.2772 44.0974 36.2772 41.7V16.441H41.8742V41.671C41.8742 43.411 42.1159 45.006 42.5992 46.456C43.1019 47.906 43.8172 49.153 44.7452 50.197C45.6925 51.241 46.8429 52.0627 48.1962 52.662C49.5689 53.242 51.1155 53.532 52.8362 53.532Z" fill="white"/>
<path d="M155.653 16.441V21.023H135.701V34.827H151.854V39.235H135.701V53.416H155.653V57.998H130.046V16.441H155.653ZM169.924 40.656V57.998H164.327V16.441H176.072C178.702 16.441 180.973 16.7117 182.887 17.253C184.801 17.775 186.377 18.5387 187.614 19.544C188.871 20.5494 189.799 21.7674 190.398 23.198C190.998 24.6094 191.297 26.1947 191.297 27.954C191.297 29.4234 191.065 30.796 190.601 32.072C190.137 33.348 189.461 34.4984 188.571 35.523C187.701 36.5284 186.628 37.3887 185.352 38.104C184.096 38.8194 182.665 39.3607 181.06 39.728C181.756 40.134 182.375 40.7237 182.916 41.497L195.038 57.998H190.05C189.026 57.998 188.272 57.6017 187.788 56.809L177 41.961C176.672 41.497 176.314 41.1684 175.927 40.975C175.541 40.7624 174.961 40.656 174.187 40.656H169.924ZM169.924 36.567H175.811C177.455 36.567 178.895 36.3737 180.132 35.987C181.389 35.581 182.433 35.0204 183.264 34.305C184.115 33.5704 184.753 32.7004 185.178 31.695C185.604 30.6897 185.816 29.578 185.816 28.36C185.816 25.8854 184.995 24.0197 183.351 22.763C181.727 21.5064 179.301 20.878 176.072 20.878H169.924V36.567Z" fill="white"/>
<path d="M111.7 65.308V86.998H107.65V77.518H97.465V86.998H93.415V65.308H97.465V74.638H107.65V65.308H111.7ZM137.215 76.153C137.215 77.743 136.95 79.218 136.42 80.578C135.9 81.928 135.16 83.098 134.2 84.088C133.24 85.078 132.085 85.853 130.735 86.413C129.385 86.963 127.885 87.238 126.235 87.238C124.595 87.238 123.1 86.963 121.75 86.413C120.4 85.853 119.24 85.078 118.27 84.088C117.31 83.098 116.565 81.928 116.035 80.578C115.505 79.218 115.24 77.743 115.24 76.153C115.24 74.563 115.505 73.093 116.035 71.743C116.565 70.383 117.31 69.208 118.27 68.218C119.24 67.228 120.4 66.458 121.75 65.908C123.1 65.348 124.595 65.068 126.235 65.068C127.335 65.068 128.37 65.198 129.34 65.458C130.31 65.708 131.2 66.068 132.01 66.538C132.82 66.998 133.545 67.563 134.185 68.233C134.835 68.893 135.385 69.633 135.835 70.453C136.285 71.273 136.625 72.163 136.855 73.123C137.095 74.083 137.215 75.093 137.215 76.153ZM133.09 76.153C133.09 74.963 132.93 73.898 132.61 72.958C132.29 72.008 131.835 71.203 131.245 70.543C130.655 69.883 129.935 69.378 129.085 69.028C128.245 68.678 127.295 68.503 126.235 68.503C125.175 68.503 124.22 68.678 123.37 69.028C122.53 69.378 121.81 69.883 121.21 70.543C120.62 71.203 120.165 72.008 119.845 72.958C119.525 73.898 119.365 74.963 119.365 76.153C119.365 77.343 119.525 78.413 119.845 79.363C120.165 80.303 120.62 81.103 121.21 81.763C121.81 82.413 122.53 82.913 123.37 83.263C124.22 83.613 125.175 83.788 126.235 83.788C127.295 83.788 128.245 83.613 129.085 83.263C129.935 82.913 130.655 82.413 131.245 81.763C131.835 81.103 132.29 80.303 132.61 79.363C132.93 78.413 133.09 77.343 133.09 76.153ZM155.176 68.623H148.636V86.998H144.601V68.623H138.061V65.308H155.176V68.623ZM177.967 76.153C177.967 77.743 177.702 79.218 177.172 80.578C176.652 81.928 175.912 83.098 174.952 84.088C173.992 85.078 172.837 85.853 171.487 86.413C170.137 86.963 168.637 87.238 166.987 87.238C165.347 87.238 163.852 86.963 162.502 86.413C161.152 85.853 159.992 85.078 159.022 84.088C158.062 83.098 157.317 81.928 156.787 80.578C156.257 79.218 155.992 77.743 155.992 76.153C155.992 74.563 156.257 73.093 156.787 71.743C157.317 70.383 158.062 69.208 159.022 68.218C159.992 67.228 161.152 66.458 162.502 65.908C163.852 65.348 165.347 65.068 166.987 65.068C168.087 65.068 169.122 65.198 170.092 65.458C171.062 65.708 171.952 66.068 172.762 66.538C173.572 66.998 174.297 67.563 174.937 68.233C175.587 68.893 176.137 69.633 176.587 70.453C177.037 71.273 177.377 72.163 177.607 73.123C177.847 74.083 177.967 75.093 177.967 76.153ZM173.842 76.153C173.842 74.963 173.682 73.898 173.362 72.958C173.042 72.008 172.587 71.203 171.997 70.543C171.407 69.883 170.687 69.378 169.837 69.028C168.997 68.678 168.047 68.503 166.987 68.503C165.927 68.503 164.972 68.678 164.122 69.028C163.282 69.378 162.562 69.883 161.962 70.543C161.372 71.203 160.917 72.008 160.597 72.958C160.277 73.898 160.117 74.963 160.117 76.153C160.117 77.343 160.277 78.413 160.597 79.363C160.917 80.303 161.372 81.103 161.962 81.763C162.562 82.413 163.282 82.913 164.122 83.263C164.972 83.613 165.927 83.788 166.987 83.788C168.047 83.788 168.997 83.613 169.837 83.263C170.687 82.913 171.407 82.413 171.997 81.763C172.587 81.103 173.042 80.303 173.362 79.363C173.682 78.413 173.842 77.343 173.842 76.153ZM193.061 69.253C192.941 69.463 192.811 69.618 192.671 69.718C192.541 69.808 192.376 69.853 192.176 69.853C191.966 69.853 191.736 69.778 191.486 69.628C191.246 69.468 190.956 69.293 190.616 69.103C190.276 68.913 189.876 68.743 189.416 68.593C188.966 68.433 188.431 68.353 187.811 68.353C187.251 68.353 186.761 68.423 186.341 68.563C185.921 68.693 185.566 68.878 185.276 69.118C184.996 69.358 184.786 69.648 184.646 69.988C184.506 70.318 184.436 70.683 184.436 71.083C184.436 71.593 184.576 72.018 184.856 72.358C185.146 72.698 185.526 72.988 185.996 73.228C186.466 73.468 187.001 73.683 187.601 73.873C188.201 74.063 188.816 74.268 189.446 74.488C190.076 74.698 190.691 74.948 191.291 75.238C191.891 75.518 192.426 75.878 192.896 76.318C193.366 76.748 193.741 77.278 194.021 77.908C194.311 78.538 194.456 79.303 194.456 80.203C194.456 81.183 194.286 82.103 193.946 82.963C193.616 83.813 193.126 84.558 192.476 85.198C191.836 85.828 191.051 86.328 190.121 86.698C189.191 87.058 188.126 87.238 186.926 87.238C186.236 87.238 185.556 87.168 184.886 87.028C184.216 86.898 183.571 86.708 182.951 86.458C182.341 86.208 181.766 85.908 181.226 85.558C180.686 85.208 180.206 84.818 179.786 84.388L180.971 82.453C181.071 82.313 181.201 82.198 181.361 82.108C181.521 82.008 181.691 81.958 181.871 81.958C182.121 81.958 182.391 82.063 182.681 82.273C182.971 82.473 183.316 82.698 183.716 82.948C184.116 83.198 184.581 83.428 185.111 83.638C185.651 83.838 186.296 83.938 187.046 83.938C188.196 83.938 189.086 83.668 189.716 83.128C190.346 82.578 190.661 81.793 190.661 80.773C190.661 80.203 190.516 79.738 190.226 79.378C189.946 79.018 189.571 78.718 189.101 78.478C188.631 78.228 188.096 78.018 187.496 77.848C186.896 77.678 186.286 77.493 185.666 77.293C185.046 77.093 184.436 76.853 183.836 76.573C183.236 76.293 182.701 75.928 182.231 75.478C181.761 75.028 181.381 74.468 181.091 73.798C180.811 73.118 180.671 72.283 180.671 71.293C180.671 70.503 180.826 69.733 181.136 68.983C181.456 68.233 181.916 67.568 182.516 66.988C183.116 66.408 183.856 65.943 184.736 65.593C185.616 65.243 186.626 65.068 187.766 65.068C189.046 65.068 190.226 65.268 191.306 65.668C192.386 66.068 193.306 66.628 194.066 67.348L193.061 69.253Z" fill="white"/>
<path d="M84.1 58.4463V86.9463H79V16.1963H97.25C105.55 16.1963 111.8 18.013 116 21.6463C120.233 25.2796 122.35 30.463 122.35 37.1963C122.35 40.2963 121.767 43.1463 120.6 45.7463C119.467 48.3463 117.817 50.5963 115.65 52.4963C113.483 54.363 110.85 55.8296 107.75 56.8963C104.65 57.9296 101.15 58.4463 97.25 58.4463H84.1ZM84.1 54.3463H97.25C100.383 54.3463 103.183 53.913 105.65 53.0463C108.117 52.1796 110.2 50.9796 111.9 49.4463C113.633 47.913 114.95 46.113 115.85 44.0463C116.783 41.9463 117.25 39.663 117.25 37.1963C117.25 31.763 115.567 27.5796 112.2 24.6463C108.867 21.713 103.883 20.2463 97.25 20.2463H84.1V54.3463Z" fill="white"/>
</svg>
